<svg xmlns="http://www.w3.org/2000/svg" xmlns:xlink="http://www.w3.org/1999/xlink" contentStyleType="text/css" data-diagram-type="SEQUENCE" height="971px" preserveAspectRatio="none" style="width:660px;height:971px;background:#FFFFFF;" version="1.1" viewBox="0 0 660 971" width="660px" zoomAndPan="magnify"><defs/><g><rect fill="none" height="129.7949" style="stroke:#000000;stroke-width:1.5;" width="633.2876" x="10" y="132.2031"/><rect fill="none" height="205.377" style="stroke:#000000;stroke-width:1.5;" width="633.2876" x="10" y="383.8711"/><rect fill="none" height="205.377" style="stroke:#000000;stroke-width:1.5;" width="633.2876" x="10" y="711.1211"/><g><title>App</title><rect fill="#000000" fill-opacity="0.00000" height="894.877" width="8" x="35.4551" y="38.6211"/><line style="stroke:#181818;stroke-width:0.5;stroke-dasharray:5,5;" x1="39" x2="39" y1="38.6211" y2="933.498"/></g><g><title>Cache</title><rect fill="#000000" fill-opacity="0.00000" height="894.877" width="8" x="268.6938" y="38.6211"/><line style="stroke:#181818;stroke-width:0.5;stroke-dasharray:5,5;" x1="272.4595" x2="272.4595" y1="38.6211" y2="933.498"/></g><g><title>DB</title><rect fill="#000000" fill-opacity="0.00000" height="894.877" width="8" x="612.5635" y="38.6211"/><line style="stroke:#181818;stroke-width:0.5;stroke-dasharray:5,5;" x1="615.8394" x2="615.8394" y1="38.6211" y2="933.498"/></g><g class="participant participant-head" data-participant="App"><rect fill="#E2E2F0" height="32.6211" rx="2.5" ry="2.5" style="stroke:#181818;stroke-width:0.5;" width="38.9102" x="20" y="5"/><text fill="#000000" font-family="sans-serif" font-size="14" lengthAdjust="spacing" textLength="24.9102" x="27" y="27.1074">App</text></g><g class="participant participant-tail" data-participant="App"><rect fill="#E2E2F0" height="32.6211" rx="2.5" ry="2.5" style="stroke:#181818;stroke-width:0.5;" width="38.9102" x="20" y="932.498"/><text fill="#000000" font-family="sans-serif" font-size="14" lengthAdjust="spacing" textLength="24.9102" x="27" y="954.6055">App</text></g><g class="participant participant-head" data-participant="Cache"><rect fill="#E2E2F0" height="32.6211" rx="2.5" ry="2.5" style="stroke:#181818;stroke-width:0.5;" width="54.4688" x="245.4595" y="5"/><text fill="#000000" font-family="sans-serif" font-size="14" lengthAdjust="spacing" textLength="40.4688" x="252.4595" y="27.1074">Cache</text></g><g class="participant participant-tail" data-participant="Cache"><rect fill="#E2E2F0" height="32.6211" rx="2.5" ry="2.5" style="stroke:#181818;stroke-width:0.5;" width="54.4688" x="245.4595" y="932.498"/><text fill="#000000" font-family="sans-serif" font-size="14" lengthAdjust="spacing" textLength="40.4688" x="252.4595" y="954.6055">Cache</text></g><g class="participant participant-head" data-participant="DB"><rect fill="#E2E2F0" height="32.6211" rx="2.5" ry="2.5" style="stroke:#181818;stroke-width:0.5;" width="33.4482" x="599.8394" y="5"/><text fill="#000000" font-family="sans-serif" font-size="14" lengthAdjust="spacing" textLength="19.4482" x="606.8394" y="27.1074">DB</text></g><g class="participant participant-tail" data-participant="DB"><rect fill="#E2E2F0" height="32.6211" rx="2.5" ry="2.5" style="stroke:#181818;stroke-width:0.5;" width="33.4482" x="599.8394" y="932.498"/><text fill="#000000" font-family="sans-serif" font-size="14" lengthAdjust="spacing" textLength="19.4482" x="606.8394" y="954.6055">DB</text></g><rect fill="#EEEEEE" height="3" style="stroke:#EEEEEE;stroke-width:1;" width="653.2876" x="0" y="70.2666"/><line style="stroke:#000000;stroke-width:1;" x1="0" x2="653.2876" y1="70.2666" y2="70.2666"/><line style="stroke:#000000;stroke-width:1;" x1="0" x2="653.2876" y1="73.2666" y2="73.2666"/><rect fill="#EEEEEE" height="25.291" style="stroke:#000000;stroke-width:2;" width="49.4009" x="301.9434" y="58.6211"/><text fill="#000000" font-family="sans-serif" font-size="13" font-weight="bold" lengthAdjust="spacing" textLength="31.7891" x="307.9434" y="76.6494">Read</text><g class="message" data-participant-1="App" data-participant-2="Cache"><polygon fill="#181818" points="260.6938,113.2031,270.6938,117.2031,260.6938,121.2031,264.6938,117.2031" style="stroke:#181818;stroke-width:1;"/><line style="stroke:#181818;stroke-width:1;" x1="39.4551" x2="266.6938" y1="117.2031" y2="117.2031"/><text fill="#000000" font-family="sans-serif" font-size="13" font-weight="bold" lengthAdjust="spacing" textLength="7.23" x="46.4551" y="111.9404">1</text><text fill="#000000" font-family="sans-serif" font-size="13" lengthAdjust="spacing" textLength="185.7007" x="57.6851" y="111.9404">Request list of unclaimed orders</text></g><path d="M10,132.2031 L70.1709,132.2031 L70.1709,141.4941 L60.1709,151.4941 L10,151.4941 L10,132.2031" fill="#EEEEEE" style="stroke:#000000;stroke-width:1.5;"/><rect fill="none" height="129.7949" style="stroke:#000000;stroke-width:1.5;" width="633.2876" x="10" y="132.2031"/><text fill="#000000" font-family="sans-serif" font-size="13" font-weight="bold" lengthAdjust="spacing" textLength="15.1709" x="25" y="147.2314">alt</text><text fill="#000000" font-family="sans-serif" font-size="11" font-weight="bold" lengthAdjust="spacing" textLength="56.8369" x="85.1709" y="146.0732">[Cache hit]</text><g class="message" data-participant-1="Cache" data-participant-2="App"><polygon fill="#181818" points="50.4551,170.7852,40.4551,174.7852,50.4551,178.7852,46.4551,174.7852" style="stroke:#181818;stroke-width:1;"/><line style="stroke:#181818;stroke-width:1;stroke-dasharray:2,2;" x1="44.4551" x2="271.6938" y1="174.7852" y2="174.7852"/><text fill="#000000" font-family="sans-serif" font-size="13" font-weight="bold" lengthAdjust="spacing" textLength="7.23" x="56.4551" y="169.5225">2</text><text fill="#000000" font-family="sans-serif" font-size="13" lengthAdjust="spacing" textLength="166.1816" x="67.6851" y="169.5225">Respond with list from cache</text></g><line style="stroke:#000000;stroke-width:1;stroke-dasharray:2,2;" x1="10" x2="643.2876" y1="183.7852" y2="183.7852"/><text fill="#000000" font-family="sans-serif" font-size="11" font-weight="bold" lengthAdjust="spacing" textLength="142.4253" x="15" y="195.6553">[Cache miss (first request)]</text><g class="message" data-participant-1="DB" data-participant-2="Cache"><polygon fill="#181818" points="283.6938,218.707,273.6938,222.707,283.6938,226.707,279.6938,222.707" style="stroke:#181818;stroke-width:1;"/><line style="stroke:#181818;stroke-width:1;stroke-dasharray:2,2;" x1="277.6938" x2="615.5635" y1="222.707" y2="222.707"/><text fill="#000000" font-family="sans-serif" font-size="13" font-weight="bold" lengthAdjust="spacing" textLength="7.23" x="289.6938" y="217.4443">3</text><text fill="#000000" font-family="sans-serif" font-size="13" lengthAdjust="spacing" textLength="168.3589" x="300.9238" y="217.4443">Read list of unclaimed orders</text></g><g class="message" data-participant-1="Cache" data-participant-2="App"><polygon fill="#181818" points="50.4551,249.998,40.4551,253.998,50.4551,257.998,46.4551,253.998" style="stroke:#181818;stroke-width:1;"/><line style="stroke:#181818;stroke-width:1;stroke-dasharray:2,2;" x1="44.4551" x2="271.6938" y1="253.998" y2="253.998"/><text fill="#000000" font-family="sans-serif" font-size="13" font-weight="bold" lengthAdjust="spacing" textLength="7.23" x="56.4551" y="248.7354">4</text><text fill="#000000" font-family="sans-serif" font-size="13" lengthAdjust="spacing" textLength="198.0088" x="67.6851" y="248.7354">Respond with newly acquired data</text></g><rect fill="#EEEEEE" height="3" style="stroke:#EEEEEE;stroke-width:1;" width="653.2876" x="0" y="290.6436"/><line style="stroke:#000000;stroke-width:1;" x1="0" x2="653.2876" y1="290.6436" y2="290.6436"/><line style="stroke:#000000;stroke-width:1;" x1="0" x2="653.2876" y1="293.6436" y2="293.6436"/><rect fill="#EEEEEE" height="25.291" style="stroke:#000000;stroke-width:2;" width="115.8481" x="268.7197" y="278.998"/><text fill="#000000" font-family="sans-serif" font-size="13" font-weight="bold" lengthAdjust="spacing" textLength="98.2363" x="274.7197" y="297.0264">Write new order</text><g class="message" data-participant-1="App" data-participant-2="Cache"><polygon fill="#181818" points="260.6938,333.5801,270.6938,337.5801,260.6938,341.5801,264.6938,337.5801" style="stroke:#181818;stroke-width:1;"/><line style="stroke:#181818;stroke-width:1;" x1="39.4551" x2="266.6938" y1="337.5801" y2="337.5801"/><text fill="#000000" font-family="sans-serif" font-size="13" font-weight="bold" lengthAdjust="spacing" textLength="7.23" x="46.4551" y="332.3174">1</text><text fill="#000000" font-family="sans-serif" font-size="13" lengthAdjust="spacing" textLength="91.749" x="57.6851" y="332.3174">Write new order</text></g><g class="message" data-participant-1="Cache" data-participant-2="DB"><polygon fill="#181818" points="604.5635,364.8711,614.5635,368.8711,604.5635,372.8711,608.5635,368.8711" style="stroke:#181818;stroke-width:1;"/><line style="stroke:#181818;stroke-width:1;" x1="272.6938" x2="610.5635" y1="368.8711" y2="368.8711"/><text fill="#000000" font-family="sans-serif" font-size="13" font-weight="bold" lengthAdjust="spacing" textLength="7.23" x="279.6938" y="363.6084">2</text><text fill="#000000" font-family="sans-serif" font-size="13" lengthAdjust="spacing" textLength="91.749" x="290.9238" y="363.6084">Write new order</text></g><path d="M10,383.8711 L70.1709,383.8711 L70.1709,393.1621 L60.1709,403.1621 L10,403.1621 L10,383.8711" fill="#EEEEEE" style="stroke:#000000;stroke-width:1.5;"/><rect fill="none" height="205.377" style="stroke:#000000;stroke-width:1.5;" width="633.2876" x="10" y="383.8711"/><text fill="#000000" font-family="sans-serif" font-size="13" font-weight="bold" lengthAdjust="spacing" textLength="15.1709" x="25" y="398.8994">alt</text><text fill="#000000" font-family="sans-serif" font-size="11" font-weight="bold" lengthAdjust="spacing" textLength="81.3076" x="85.1709" y="397.7412">[Write success]</text><g class="message" data-participant-1="DB" data-participant-2="Cache"><polygon fill="#181818" points="283.6938,422.4531,273.6938,426.4531,283.6938,430.4531,279.6938,426.4531" style="stroke:#181818;stroke-width:1;"/><line style="stroke:#181818;stroke-width:1;stroke-dasharray:2,2;" x1="277.6938" x2="615.5635" y1="426.4531" y2="426.4531"/><text fill="#000000" font-family="sans-serif" font-size="13" font-weight="bold" lengthAdjust="spacing" textLength="7.23" x="289.6938" y="421.1904">3</text><text fill="#000000" font-family="sans-serif" font-size="13" lengthAdjust="spacing" textLength="80.9009" x="300.9238" y="421.1904">Write success</text></g><g class="message" data-participant-1="Cache" data-participant-2="Cache"><line style="stroke:#181818;stroke-width:1;" x1="272.6938" x2="314.6938" y1="457.7441" y2="457.7441"/><line style="stroke:#181818;stroke-width:1;" x1="314.6938" x2="314.6938" y1="457.7441" y2="470.7441"/><line style="stroke:#181818;stroke-width:1;" x1="273.6938" x2="314.6938" y1="470.7441" y2="470.7441"/><polygon fill="#181818" points="283.6938,466.7441,273.6938,470.7441,283.6938,474.7441,279.6938,470.7441" style="stroke:#181818;stroke-width:1;"/><text fill="#000000" font-family="sans-serif" font-size="13" font-weight="bold" lengthAdjust="spacing" textLength="7.23" x="279.6938" y="452.4814">4</text><text fill="#000000" font-family="sans-serif" font-size="13" lengthAdjust="spacing" textLength="274.5933" x="290.9238" y="452.4814">Add entry to the cached list of unclaimed orders</text></g><g class="message" data-participant-1="Cache" data-participant-2="App"><polygon fill="#181818" points="50.4551,498.0352,40.4551,502.0352,50.4551,506.0352,46.4551,502.0352" style="stroke:#181818;stroke-width:1;"/><line style="stroke:#181818;stroke-width:1;stroke-dasharray:2,2;" x1="44.4551" x2="271.6938" y1="502.0352" y2="502.0352"/><text fill="#000000" font-family="sans-serif" font-size="13" font-weight="bold" lengthAdjust="spacing" textLength="7.23" x="56.4551" y="496.7725">5</text><text fill="#000000" font-family="sans-serif" font-size="13" lengthAdjust="spacing" textLength="129.3398" x="67.6851" y="496.7725">Respond with success</text></g><line style="stroke:#000000;stroke-width:1;stroke-dasharray:2,2;" x1="10" x2="643.2876" y1="511.0352" y2="511.0352"/><text fill="#000000" font-family="sans-serif" font-size="11" font-weight="bold" lengthAdjust="spacing" textLength="63.5615" x="15" y="522.9053">[Write error]</text><g class="message" data-participant-1="DB" data-participant-2="Cache"><polygon fill="#181818" points="283.6938,545.957,273.6938,549.957,283.6938,553.957,279.6938,549.957" style="stroke:#181818;stroke-width:1;"/><line style="stroke:#181818;stroke-width:1;stroke-dasharray:2,2;" x1="277.6938" x2="615.5635" y1="549.957" y2="549.957"/><text fill="#000000" font-family="sans-serif" font-size="13" font-weight="bold" lengthAdjust="spacing" textLength="7.23" x="289.6938" y="544.6943">6</text><text fill="#000000" font-family="sans-serif" font-size="13" lengthAdjust="spacing" textLength="61.3882" x="300.9238" y="544.6943">Write error</text></g><g class="message" data-participant-1="Cache" data-participant-2="App"><polygon fill="#181818" points="50.4551,577.248,40.4551,581.248,50.4551,585.248,46.4551,581.248" style="stroke:#181818;stroke-width:1;"/><line style="stroke:#181818;stroke-width:1;stroke-dasharray:2,2;" x1="44.4551" x2="271.6938" y1="581.248" y2="581.248"/><text fill="#000000" font-family="sans-serif" font-size="13" font-weight="bold" lengthAdjust="spacing" textLength="7.23" x="56.4551" y="575.9854">7</text><text fill="#000000" font-family="sans-serif" font-size="13" lengthAdjust="spacing" textLength="109.8271" x="67.6851" y="575.9854">Respond with error</text></g><rect fill="#EEEEEE" height="3" style="stroke:#EEEEEE;stroke-width:1;" width="653.2876" x="0" y="617.8936"/><line style="stroke:#000000;stroke-width:1;" x1="0" x2="653.2876" y1="617.8936" y2="617.8936"/><line style="stroke:#000000;stroke-width:1;" x1="0" x2="653.2876" y1="620.8936" y2="620.8936"/><rect fill="#EEEEEE" height="25.291" style="stroke:#000000;stroke-width:2;" width="133.1772" x="260.0552" y="606.248"/><text fill="#000000" font-family="sans-serif" font-size="13" font-weight="bold" lengthAdjust="spacing" textLength="115.5654" x="266.0552" y="624.2764">Write order update</text><g class="message" data-participant-1="App" data-participant-2="Cache"><polygon fill="#181818" points="260.6938,660.8301,270.6938,664.8301,260.6938,668.8301,264.6938,664.8301" style="stroke:#181818;stroke-width:1;"/><line style="stroke:#181818;stroke-width:1;" x1="39.4551" x2="266.6938" y1="664.8301" y2="664.8301"/><text fill="#000000" font-family="sans-serif" font-size="13" font-weight="bold" lengthAdjust="spacing" textLength="7.23" x="46.4551" y="659.5674">1</text><text fill="#000000" font-family="sans-serif" font-size="13" lengthAdjust="spacing" textLength="148.8462" x="57.6851" y="659.5674">Write order status change</text></g><g class="message" data-participant-1="Cache" data-participant-2="DB"><polygon fill="#181818" points="604.5635,692.1211,614.5635,696.1211,604.5635,700.1211,608.5635,696.1211" style="stroke:#181818;stroke-width:1;"/><line style="stroke:#181818;stroke-width:1;" x1="272.6938" x2="610.5635" y1="696.1211" y2="696.1211"/><text fill="#000000" font-family="sans-serif" font-size="13" font-weight="bold" lengthAdjust="spacing" textLength="7.23" x="279.6938" y="690.8584">2</text><text fill="#000000" font-family="sans-serif" font-size="13" lengthAdjust="spacing" textLength="148.8462" x="290.9238" y="690.8584">Write order status change</text></g><path d="M10,711.1211 L70.1709,711.1211 L70.1709,720.4121 L60.1709,730.4121 L10,730.4121 L10,711.1211" fill="#EEEEEE" style="stroke:#000000;stroke-width:1.5;"/><rect fill="none" height="205.377" style="stroke:#000000;stroke-width:1.5;" width="633.2876" x="10" y="711.1211"/><text fill="#000000" font-family="sans-serif" font-size="13" font-weight="bold" lengthAdjust="spacing" textLength="15.1709" x="25" y="726.1494">alt</text><text fill="#000000" font-family="sans-serif" font-size="11" font-weight="bold" lengthAdjust="spacing" textLength="81.3076" x="85.1709" y="724.9912">[Write success]</text><g class="message" data-participant-1="DB" data-participant-2="Cache"><polygon fill="#181818" points="283.6938,749.7031,273.6938,753.7031,283.6938,757.7031,279.6938,753.7031" style="stroke:#181818;stroke-width:1;"/><line style="stroke:#181818;stroke-width:1;stroke-dasharray:2,2;" x1="277.6938" x2="615.5635" y1="753.7031" y2="753.7031"/><text fill="#000000" font-family="sans-serif" font-size="13" font-weight="bold" lengthAdjust="spacing" textLength="7.23" x="289.6938" y="748.4404">3</text><text fill="#000000" font-family="sans-serif" font-size="13" lengthAdjust="spacing" textLength="80.9009" x="300.9238" y="748.4404">Write success</text></g><g class="message" data-participant-1="Cache" data-participant-2="Cache"><line style="stroke:#181818;stroke-width:1;" x1="272.6938" x2="314.6938" y1="784.9941" y2="784.9941"/><line style="stroke:#181818;stroke-width:1;" x1="314.6938" x2="314.6938" y1="784.9941" y2="797.9941"/><line style="stroke:#181818;stroke-width:1;" x1="273.6938" x2="314.6938" y1="797.9941" y2="797.9941"/><polygon fill="#181818" points="283.6938,793.9941,273.6938,797.9941,283.6938,801.9941,279.6938,797.9941" style="stroke:#181818;stroke-width:1;"/><text fill="#000000" font-family="sans-serif" font-size="13" font-weight="bold" lengthAdjust="spacing" textLength="7.23" x="279.6938" y="779.7314">4</text><text fill="#000000" font-family="sans-serif" font-size="13" lengthAdjust="spacing" textLength="318.6396" x="290.9238" y="779.7314">Remove entry from  the cached list of unclaimed orders</text></g><g class="message" data-participant-1="Cache" data-participant-2="App"><polygon fill="#181818" points="50.4551,825.2852,40.4551,829.2852,50.4551,833.2852,46.4551,829.2852" style="stroke:#181818;stroke-width:1;"/><line style="stroke:#181818;stroke-width:1;stroke-dasharray:2,2;" x1="44.4551" x2="271.6938" y1="829.2852" y2="829.2852"/><text fill="#000000" font-family="sans-serif" font-size="13" font-weight="bold" lengthAdjust="spacing" textLength="7.23" x="56.4551" y="824.0225">5</text><text fill="#000000" font-family="sans-serif" font-size="13" lengthAdjust="spacing" textLength="129.3398" x="67.6851" y="824.0225">Respond with success</text></g><line style="stroke:#000000;stroke-width:1;stroke-dasharray:2,2;" x1="10" x2="643.2876" y1="838.2852" y2="838.2852"/><text fill="#000000" font-family="sans-serif" font-size="11" font-weight="bold" lengthAdjust="spacing" textLength="63.5615" x="15" y="850.1553">[Write error]</text><g class="message" data-participant-1="DB" data-participant-2="Cache"><polygon fill="#181818" points="283.6938,873.207,273.6938,877.207,283.6938,881.207,279.6938,877.207" style="stroke:#181818;stroke-width:1;"/><line style="stroke:#181818;stroke-width:1;stroke-dasharray:2,2;" x1="277.6938" x2="615.5635" y1="877.207" y2="877.207"/><text fill="#000000" font-family="sans-serif" font-size="13" font-weight="bold" lengthAdjust="spacing" textLength="7.23" x="289.6938" y="871.9443">6</text><text fill="#000000" font-family="sans-serif" font-size="13" lengthAdjust="spacing" textLength="61.3882" x="300.9238" y="871.9443">Write error</text></g><g class="message" data-participant-1="Cache" data-participant-2="App"><polygon fill="#181818" points="50.4551,904.498,40.4551,908.498,50.4551,912.498,46.4551,908.498" style="stroke:#181818;stroke-width:1;"/><line style="stroke:#181818;stroke-width:1;stroke-dasharray:2,2;" x1="44.4551" x2="271.6938" y1="908.498" y2="908.498"/><text fill="#000000" font-family="sans-serif" font-size="13" font-weight="bold" lengthAdjust="spacing" textLength="7.23" x="56.4551" y="903.2354">7</text><text fill="#000000" font-family="sans-serif" font-size="13" lengthAdjust="spacing" textLength="109.8271" x="67.6851" y="903.2354">Respond with error</text></g><!--SRC=[rPBDJiCm48JlVegz0OUGUqMG2Zn1BvmNUzDOya-wNbFrxN7YeeYgBKXm8OSSChCpcy- -6KJ6j6hRqM6GxDszZhvDjCiKD3N6ufRHAzLri24qq7KAiyIG_HknKkjnXEOHdb4Fj2gECfO4d2sls4CEsg7rP22o8KuAdLGl35OKb6SAU6YQ9I6DCHZOMnbgJC_HWvvKHIxHSTpRbE2sjrmSN5llvhmgJualJwkwyiLjlkiFj7S7GBtBbikKGK55mSmmNjaAJOuQTftBYLdL9Oi-xNWgpf3gnvIrffJE_DWbVUbS6mCKX0yW4QH8CyDVqFWicq-XzXDpv8lRBUgrsEhwYhKYpMCXJZyXM_r9K782FM3OqZd6vsn_H7j3FhxJ4VXyPVy7ymy0]--></g></svg>